# xmcd
#
# Track frame offsets: 
#        150
#        15262
#        29277
#        44575
#        62512
#        76873
#        97161
#        113760
#        126717
#        144203
#        167044
#
# Disc length: 2473 seconds
#
# Revision: 12
# Processed by: cddbd v1.5.1PL0 Copyright (c) Steve Scherf et al.
# Submitted via: ExactAudioCopy v0.95b2
#
DISCID=8b09a70b
DTITLE=Clay Walker - Live, Laugh, Love
DYEAR=1999
DGENRE=Country
TTITLE0=She's Always Right
TTITLE1=Lonesome Sleep Tonight
TTITLE2=Holdin' Her And Loving You
TTITLE3=Cold Hearted
TTITLE4=If A Man Ain't Thinking
TTITLE5=Once In A Lifetime Love
TTITLE6=It Ain't Called Heartland
TTITLE7=Woman Thing
TTITLE8=This Time Love
TTITLE9=The Chain Of Love
TTITLE10=Live, Laugh, Love
EXTD=more info\nMillenniumMusicProjectFormat, syntax as follows:\nTitl
EXTD=e{Subtitle}[info](Lyricist;Com
EXTT0=
EXTT1=
EXTT2=
EXTT3=
EXTT4=
EXTT5=
EXTT6=
EXTT7=
EXTT8=
EXTT9=
EXTT10=
PLAYORDER=
